<?xml version="1.0" standalone="no"?>
<!DOCTYPE svg PUBLIC "-//W3C//DTD SVG 20010904//EN"
 "http://www.w3.org/TR/2001/REC-SVG-20010904/DTD/svg10.dtd">
<svg version="1.0" xmlns="http://www.w3.org/2000/svg"
 width="512.000000pt" height="512.000000pt" viewBox="0 0 512.000000 512.000000"
 preserveAspectRatio="xMidYMid meet">

<g transform="translate(0.000000,512.000000) scale(0.100000,-0.100000)"
fill="#000000" stroke="none">
<path d="M2110 4158 l0 -203 -72 -40 c-39 -22 -74 -39 -77 -38 -3 1 -82 45
-174 99 -135 78 -171 94 -178 83 -5 -8 -106 -182 -225 -388 -166 -287 -213
-376 -202 -382 7 -5 84 -50 171 -100 l157 -91 0 -88 0 -88 -157 -91 c-87 -50
-164 -95 -172 -100 -10 -7 37 -96 209 -392 122 -211 223 -385 225 -388 2 -2
80 40 172 94 92 53 171 97 174 98 3 1 38 -16 77 -38 l72 -40 0 -202 0 -203
450 0 450 0 0 200 0 199 71 41 c39 23 76 40 82 37 7 -3 86 -48 177 -100 90
-53 165 -95 166 -94 1 1 95 164 209 362 114 198 216 374 226 391 l18 30 -174
100 -174 99 0 85 -1 85 175 99 174 100 -18 30 c-10 17 -112 193 -226 391 -114
198 -208 361 -209 362 -1 1 -76 -41 -166 -94 -91 -52 -170 -97 -177 -100 -6
-3 -43 14 -82 37 l-71 41 0 199 0 200 -450 0 -450 0 0 -202z m565 -714 c152
-39 280 -167 320 -319 87 -337 -221 -640 -557 -547 -151 42 -273 166 -312 317
-87 333 216 636 549 549z"/>
</g>
</svg>
